HIERARCHY
ROOT Hips
{
	OFFSET -0.179506 -22.333345 2.821913
	CHANNELS 6 Xposition Yposition Zposition Zrotation Yrotation Xrotation 
	JOINT LeftUpLeg
	{
		OFFSET 6.951974 -9.140623 -0.681533
		CHANNELS 3 Zrotation Yrotation Xrotation
		JOINT LeftLeg
		{
			OFFSET 3.427654 -37.519855 -0.449580
			CHANNELS 3 Zrotation Yrotation Xrotation
			JOINT LeftFoot
			{
				OFFSET -1.359570 -39.796059 -4.369333
				CHANNELS 3 Zrotation Yrotation Xrotation
				JOINT LeftToe
				{
					OFFSET 2.635814 -5.579078 11.928840
					CHANNELS 3 Zrotation Yrotation Xrotation
					End Site
					{
						OFFSET 0.000000 0.000000 0.000000
					}
				}
			}
		}
	}
	JOINT RightUpLeg
	{
		OFFSET -6.767048 -9.052170 -0.431982
		CHANNELS 3 Zrotation Yrotation Xrotation
		JOINT RightLeg
		{
			OFFSET -3.829005 -38.256897 -0.885003
			CHANNELS 3 Zrotation Yrotation Xrotation
			JOINT RightFoot
			{
				OFFSET 1.577377 -39.841461 -4.231180
				CHANNELS 3 Zrotation Yrotation Xrotation
				JOINT RightToe
				{
					OFFSET -2.537174 -4.814398 12.334795
					CHANNELS 3 Zrotation Yrotation Xrotation
					End Site
					{
						OFFSET 0.000000 0.000000 0.000000
					}
				}
			}
		}
	}
	JOINT Spine
	{
		OFFSET -0.253288 10.896323 -2.669631
		CHANNELS 3 Zrotation Yrotation Xrotation
		JOINT Spine1
		{
			OFFSET 0.548704 13.518043 0.109247
			CHANNELS 3 Zrotation Yrotation Xrotation
			JOINT Spine2
			{
				OFFSET 0.145701 5.292222 2.542457
				CHANNELS 3 Zrotation Yrotation Xrotation
				JOINT Neck
				{
					OFFSET -0.277840 21.387037 -4.285703
					CHANNELS 3 Zrotation Yrotation Xrotation
					JOINT Head
					{
						OFFSET 0.515184 6.496960 5.134897
						CHANNELS 3 Zrotation Yrotation Xrotation
						End Site
						{
							OFFSET 0.000000 0.000000 0.000000
						}
					}
				}
				JOINT LeftShoulder
				{
					OFFSET 7.884473 12.174932 -3.408961
					CHANNELS 3 Zrotation Yrotation Xrotation
					JOINT LeftArm
					{
						OFFSET 9.097692 3.046888 -0.886815
						CHANNELS 3 Zrotation Yrotation Xrotation
						JOINT LeftForeArm
						{
							OFFSET 25.961220 -1.277207 -2.745643
							CHANNELS 3 Zrotation Yrotation Xrotation
							JOINT LeftHand
							{
								OFFSET 24.923361 0.898606 -0.117091
								CHANNELS 3 Zrotation Yrotation Xrotation
								End Site
								{
									OFFSET 0.000000 0.000000 0.000000
								}
							}
						}
					}
				}
				JOINT RightShoulder
				{
					OFFSET -8.175920 11.883285 -3.861528
					CHANNELS 3 Zrotation Yrotation Xrotation
					JOINT RightArm
					{
						OFFSET -9.601238 3.255117 -0.914307
						CHANNELS 3 Zrotation Yrotation Xrotation
						JOINT RightForeArm
						{
							OFFSET -25.374195 -1.332924 -2.140099
							CHANNELS 3 Zrotation Yrotation Xrotation
							JOINT RightHand
							{
								OFFSET -25.529810 0.777228 -0.555919
								CHANNELS 3 Zrotation Yrotation Xrotation
								End Site
								{
									OFFSET 0.000000 0.000000 0.000000
								}
							}
						}
					}
				}
			}
		}
	}
}
MOTION
Frames: 13
Frame Time: 0.033333
-0.179506 117.687531 2.821913 178.683700 -5.363643 179.583885 -0.773971 1.379995 -1.726480 -5.423365 -3.620334 16.519769 3.453796 12.766209 -13.855101 2.369530 -1.215017 -0.749880 -0.164449 -0.587803 -3.070409 1.565213 4.351905 13.785479 -0.342657 -8.703166 -14.947092 2.738860 0.916051 -1.050560 -1.087978 0.179393 7.098124 0.570593 -2.420019 -5.193932 -1.004963 -0.943774 4.990224 0.092040 8.107374 0.021912 -2.132785 4.624953 2.581866 -21.847360 0.701441 -2.545929 -50.593894 -8.129371 15.675199 -6.383347 -20.672191 14.048576 1.055968 -5.933962 3.008848 22.520783 1.213908 -3.478778 49.780357 4.400522 19.103790 3.949984 25.782707 7.802657 1.938986 3.271713 -0.276578 
-0.246312 118.018265 1.677541 178.378434 -5.445175 179.985704 -0.185704 0.291350 -4.919166 -6.577701 -2.460550 21.993235 2.158961 12.391372 -11.870861 2.120914 -1.239819 -0.706829 -0.287895 -0.770349 -1.570288 1.035062 4.664177 11.634963 -0.159107 -8.717541 -13.719454 2.699352 0.863287 -1.128299 -1.105554 0.916144 7.359192 0.227966 -2.367655 -5.536965 -1.031684 -0.635655 5.348847 -0.335954 7.715416 -0.269082 -2.050026 4.566151 2.664357 -22.156415 0.920870 -2.698342 -50.270949 -7.691545 15.929499 -6.365011 -21.531095 13.347586 0.694542 -6.308022 2.637037 22.806391 1.393856 -3.443024 49.444332 4.530395 19.133704 4.255994 26.022641 7.701363 2.253763 3.506043 0.164831 
0.046854 118.149719 0.414101 177.950636 -6.022430 -179.645101 0.924706 -0.491177 -9.543733 -7.379246 -0.273742 28.566268 2.681605 12.617683 -13.374280 1.972873 -1.325634 -0.720697 -0.369609 -1.195716 -0.135181 0.775183 4.402446 9.917030 -0.165256 -8.950190 -13.306164 2.527588 0.872743 -1.209591 -0.932156 1.794829 7.847544 -0.142338 -2.304436 -6.082647 -1.090185 -0.343357 5.687430 -0.611782 7.276889 -0.715562 -1.859720 4.274873 3.109017 -22.378065 1.226301 -2.622921 -49.748383 -7.330230 15.822636 -6.221543 -22.462102 12.977415 0.681998 -6.685213 2.564266 23.175818 1.438985 -3.259310 49.025654 4.537859 18.845080 4.226620 26.224224 7.858900 2.259754 3.860405 0.390655 
-0.103888 118.070587 -0.936625 177.503394 -7.802837 -179.349254 2.640254 -0.124265 -14.665043 -7.675833 3.192387 35.429788 3.318582 12.852504 -14.111876 1.840436 -1.430728 -0.701301 -0.681878 -2.129963 0.902792 0.609941 3.640464 9.629582 -0.651586 -9.148251 -13.682635 2.591594 0.831659 -1.306532 -0.684038 2.687614 8.804904 -0.547266 -2.277529 -6.660211 -1.203179 -0.173494 6.057246 -0.670827 7.123946 -1.364506 -1.709244 3.571881 3.805855 -22.132224 1.531263 -2.389317 -49.370397 -7.720473 15.465556 -6.204398 -23.189887 13.220122 0.916007 -6.772224 2.426429 23.191592 1.324632 -3.024458 48.896577 5.041002 18.332199 4.099551 25.592337 8.125298 2.274129 3.858606 0.264224 
-0.694454 117.825272 -2.407600 177.034937 -10.459999 -178.849723 4.527828 0.962417 -19.025409 -7.744123 6.518567 40.516105 3.225297 12.990634 -12.898508 1.598180 -1.533095 -0.618042 -1.226814 -3.444247 2.114843 0.486934 2.624123 9.136725 -0.730803 -9.472438 -14.556800 2.261789 0.777481 -1.401234 -0.502126 3.418108 9.547895 -0.961890 -2.371299 -7.167941 -1.168951 -0.068145 6.453623 -1.044746 6.344203 -1.547629 -1.663415 3.239272 4.141804 -22.075312 1.894689 -2.214155 -48.766200 -8.086934 14.599763 -5.325076 -23.170942 12.034696 0.766784 -7.193458 2.048594 22.994127 1.234602 -2.746259 48.388259 5.474449 17.500841 3.620524 25.459158 7.827395 2.725667 4.224675 0.114099 
-2.079728 117.408203 -3.750567 176.337641 -13.399786 -178.463345 6.015421 2.432045 -21.474986 -7.363865 8.808116 40.133151 3.022368 13.136434 -11.217896 1.421854 -1.510118 -0.524238 -2.569655 -4.981235 3.912078 0.433801 1.167618 8.184166 -0.488640 -9.592016 -15.771120 2.038343 0.720002 -1.470017 -0.584032 4.013520 9.878894 -1.460569 -2.448006 -7.564265 -1.180569 -0.012217 6.803341 -1.168440 5.580433 -1.675585 -1.845610 2.498968 4.564609 -22.006640 2.299353 -2.075365 -47.751482 -8.041300 13.733744 -4.585364 -23.222660 10.391195 1.072866 -7.458183 0.816316 22.749552 1.372826 -2.470636 47.922223 5.646616 16.971813 3.469955 25.133137 7.051098 2.735276 4.474546 -0.248551 
-3.810054 116.878494 -5.680604 175.496293 -15.889881 -178.011720 7.003856 3.807074 -21.757127 -5.918643 9.461200 33.534055 2.587574 13.843392 -10.032608 1.450725 -1.391212 -0.383891 -4.132735 -6.015824 5.835248 0.351872 0.445608 8.026683 -0.146761 -9.939183 -17.169460 2.070031 0.712974 -1.415535 -0.615955 4.258335 10.209853 -1.993233 -2.386320 -8.134967 -1.109040 -0.039236 7.258987 -0.980129 5.156059 -1.763658 -1.987045 1.305703 4.914818 -21.995817 2.923657 -2.239643 -46.745327 -7.904968 12.790281 -3.902864 -23.572400 9.093541 2.147105 -7.691690 -0.448392 22.847286 1.410344 -2.398840 47.084038 5.950299 16.351132 3.641854 24.538731 6.115052 2.265989 4.617187 -0.404878 
-6.577539 116.267166 -7.286825 175.764629 -18.490871 -178.399203 8.128952 6.060466 -18.929273 -3.964667 10.190676 22.211512 1.831366 14.697039 -7.870810 1.620649 -1.133809 -0.188132 -5.285210 -7.070852 8.114944 0.345125 0.014516 8.473469 0.034526 -10.316186 -17.588893 2.318077 0.706944 -1.043773 0.026796 3.862100 9.910301 -2.413407 -2.043569 -8.618516 -0.730339 -0.220523 7.779780 -0.934668 5.080724 -0.938246 -2.212571 0.941173 5.223887 -21.995896 3.764943 -2.350875 -46.345086 -7.460587 12.254452 -3.644092 -23.313976 9.498834 2.933245 -7.975294 -1.895212 22.820489 1.181072 -2.406236 46.620746 6.275109 15.861064 3.456751 24.421031 5.387603 0.930214 5.012096 -1.779334 
-10.199813 115.648651 -9.179177 176.336247 -21.031033 -178.762374 7.851161 6.754088 -16.750536 -3.331067 10.471019 15.997920 2.021318 15.173725 -6.869649 1.800645 -1.081227 -0.172847 -6.406451 -7.413869 8.823485 0.164161 -0.172725 12.240238 0.433322 -10.976929 -16.508303 2.523354 0.736590 -0.850717 0.586143 3.595151 9.254459 -2.208017 -1.811953 -8.545016 -0.644586 -0.328335 7.752909 -0.659674 5.073121 0.099993 -2.469509 0.543696 6.260794 -21.864397 4.149011 -2.330974 -46.564187 -7.378183 12.333146 -3.812872 -23.376905 10.381646 3.238078 -7.552962 -2.059760 23.270909 0.722131 -2.355690 45.962626 6.888581 15.478210 3.107865 23.994063 3.994265 -0.322279 4.937769 -2.572137 
-14.566196 115.141327 -11.526742 176.675465 -23.607111 -178.534949 6.038970 5.656936 -15.098167 -3.734037 9.273283 13.532544 2.939361 15.223282 -6.884704 1.690869 -1.036505 -0.232475 -8.096637 -7.103526 8.358284 -0.473547 -0.157391 17.720259 2.183152 -11.183451 -11.607936 2.654529 0.654825 -0.846808 0.842489 3.365390 7.893966 -1.793236 -1.738298 -8.264824 -0.551039 -0.365932 7.771657 -0.561071 5.082614 1.065769 -2.664815 1.427207 7.153872 -22.038254 3.813092 -2.036158 -47.594421 -7.523135 12.652754 -3.788223 -22.119179 9.522649 2.916238 -7.201192 -1.719950 23.172295 0.627735 -2.357476 45.543317 6.984728 15.663292 3.369200 24.616555 2.896875 -0.566278 5.112525 -3.127876 
-19.254234 114.924728 -14.009134 176.800024 -26.737257 -178.742983 3.076249 3.509452 -11.895644 -4.455312 5.922683 12.549265 5.601748 15.747669 -8.662669 1.607224 -1.043159 -0.167346 -10.323330 -5.922961 4.732866 -1.324379 0.466516 29.146904 3.069516 -12.736584 -3.656922 2.599371 0.755104 -0.873009 0.584449 2.498006 6.486091 -0.788428 -1.560854 -7.850629 -0.554326 -0.629215 7.599212 -0.284924 4.739968 2.260105 -2.568762 3.403979 8.598379 -22.159218 3.371961 -1.453040 -48.913087 -7.994908 13.213346 -4.232555 -21.638513 9.652954 2.191666 -6.208277 -1.301271 23.420748 0.257327 -2.406864 45.450864 6.888740 16.242944 2.814939 24.341556 1.696772 0.549080 4.604020 -2.627333 
-22.272812 114.966324 -16.707220 177.319517 -30.829534 179.344224 0.279956 1.711848 -7.444101 -3.944276 1.130272 12.278703 9.050125 18.640646 -11.048308 1.709040 -1.032218 -0.257304 -11.293106 -4.041735 -4.293463 -0.910141 1.094463 47.628145 2.006428 -14.122906 3.288572 2.581374 0.970417 -0.788524 0.229776 0.656564 6.877221 0.060499 -1.084993 -7.922057 -0.542313 -1.016852 7.922444 -0.313670 5.310311 3.863745 -2.710763 5.804983 9.374891 -21.547645 2.422855 -1.143492 -49.894938 -8.829110 13.653121 -5.363196 -21.675092 11.083608 2.016099 -5.509986 -2.192827 23.188625 0.321243 -2.747164 45.672106 6.281573 17.136873 2.656802 24.970815 1.017737 1.772002 3.954391 -2.526573 
-29.059164 115.083130 -19.066727 178.179053 -36.238947 177.531754 -2.459453 1.190783 -1.592592 -4.378729 -4.077394 11.126221 10.442399 20.229175 -14.410912 2.073965 -1.174942 -0.481030 -9.731415 -2.308248 -12.841343 0.129591 0.200894 59.021811 -0.111899 -15.449205 -0.193901 2.775739 1.025449 -0.481043 -0.078263 -1.523781 8.485338 0.737374 -0.824028 -7.654866 -0.458330 -1.577405 7.929946 -0.726402 6.473888 5.195366 -3.150698 7.116422 9.490694 -20.904883 1.380471 -1.352626 -49.810788 -9.992598 14.126390 -6.271634 -21.527944 12.130300 1.811332 -5.612362 -1.614898 22.996583 0.383982 -3.213664 46.152756 5.616924 17.353400 2.028818 25.777466 0.429300 1.823531 3.387478 -1.298892 
